<svg width="139" height="183" viewBox="0 0 139 183" fill="none" xmlns="http://www.w3.org/2000/svg">
<path fill-rule="evenodd" clip-rule="evenodd" d="M117.052 125.744L81.4483 161.121C77.6927 164.853 72.6014 166.456 67.7013 165.927C64.0162 165.529 60.436 163.928 57.6113 161.121L22.0074 125.744C18.7186 122.476 17.073 118.19 17.0707 113.906C17.0684 109.618 18.714 105.33 22.0074 102.058L57.6113 66.68C61.2666 63.048 66.1807 61.4332 70.958 61.8337C74.784 62.1546 78.5214 63.7694 81.4483 66.68L117.052 102.058C120.341 105.326 121.987 109.61 121.989 113.893C121.991 118.183 120.346 122.471 117.052 125.744ZM136.767 101.515L136.799 101.502L136.624 101.031C136.492 100.688 136.383 100.344 136.239 100.004L114.646 42.2462L101.651 60.7456L69.5447 0C69.5447 0 18.9234 74.8152 6.082 93.8914L6.10934 93.8937C-3.32482 107.9 -1.83857 127.014 10.6091 139.383L43.8847 172.445C58.0485 186.518 81.0134 186.518 95.1748 172.445L128.451 139.383C138.761 129.136 141.472 114.282 136.767 101.515Z" fill="#F12C4C"/>
<path fill-rule="evenodd" clip-rule="evenodd" d="M69.5 80C63.7008 80 59 84.477 59 90.0002C59 95.523 63.7008 100 69.5 100C75.2988 100 80 95.523 80 90.0002C80 84.477 75.2988 80 69.5 80Z" fill="#F12C4C"/>
<path fill-rule="evenodd" clip-rule="evenodd" d="M69.5 128C63.7008 128 59 132.477 59 138C59 143.523 63.7008 148 69.5 148C75.2988 148 80 143.523 80 138C80 132.477 75.2988 128 69.5 128Z" fill="#F12C4C"/>
<path fill-rule="evenodd" clip-rule="evenodd" d="M93.5 104C87.7012 104 83 108.477 83 114C83 119.523 87.7012 124 93.5 124C99.2988 124 104 119.523 104 114C104 108.477 99.2988 104 93.5 104Z" fill="#F12C4C"/>
<path fill-rule="evenodd" clip-rule="evenodd" d="M35 114C35 119.523 39.7006 124 45.5011 124C51.2993 124 56 119.523 56 114C56 108.477 51.2993 104 45.5011 104C39.7006 104 35 108.477 35 114Z" fill="#F12C4C"/>
</svg>
